<?xml version="1.0" standalone="no"?>
<!DOCTYPE svg PUBLIC "-//W3C//DTD SVG 20010904//EN"
 "http://www.w3.org/TR/2001/REC-SVG-20010904/DTD/svg10.dtd">
<svg version="1.0" xmlns="http://www.w3.org/2000/svg"
 width="224.000000pt" height="223.000000pt" viewBox="0 0 224.000000 223.000000"
 preserveAspectRatio="xMidYMid meet">

<g transform="translate(0.000000,223.000000) scale(0.100000,-0.100000)"
fill="#000000" stroke="none">
<path d="M1055 2223 c-356 -21 -667 -205 -872 -516 -80 -121 -125 -230 -152
-366 -23 -113 -29 -257 -10 -245 17 10 82 14 93 5 21 -16 55 -19 73 -6 14 9
36 9 96 1 75 -11 81 -13 123 -58 50 -53 54 -68 20 -68 -28 0 -42 -26 -25 -46
13 -16 209 -20 225 -5 9 9 143 49 194 58 23 4 26 1 27 -24 2 -66 0 -64 40 -57
34 6 36 6 30 -17 -4 -13 -7 -89 -8 -169 -1 -144 -1 -145 -14 -85 -20 96 -28
214 -16 229 9 11 6 15 -11 18 -23 4 -23 3 -26 -111 -1 -64 -4 -125 -6 -136 -3
-11 -5 -26 -5 -32 -1 -16 -51 -17 -51 -2 0 5 4 8 9 4 5 -3 12 -1 16 5 3 5 0
10 -9 10 -14 0 -28 32 -41 95 -8 41 -25 60 -57 68 -29 8 -30 7 -13 -75 2 -10
-3 -18 -11 -18 -8 0 -11 6 -8 15 4 9 0 15 -9 15 -9 0 -18 9 -22 19 -3 10 -18
22 -33 26 l-27 7 25 10 c14 6 20 12 13 15 -7 2 -21 -1 -32 -7 -14 -7 -21 -7
-21 0 0 5 -10 10 -22 10 -13 0 -35 6 -50 14 -25 13 -28 13 -33 -4 -6 -20 -45
-17 -45 4 0 6 -37 24 -81 40 -79 27 -162 71 -204 106 -11 10 -30 21 -41 24
-34 10 -64 41 -65 67 0 13 -3 18 -6 10 -11 -27 33 -250 63 -318 45 -104 39
-98 106 -118 78 -24 232 -30 224 -9 -3 8 -1 14 4 14 6 0 10 -6 11 -12 0 -7 4
-4 9 7 7 16 9 11 9 -22 1 -30 -4 -45 -16 -52 -15 -8 -16 -12 -5 -22 19 -20 15
-95 -5 -111 -10 -7 -19 -20 -21 -28 -6 -27 -20 -34 -47 -22 -69 31 -37 -14 65
-93 155 -119 365 -217 513 -239 l49 -7 -26 38 c-14 21 -26 44 -26 53 0 8 -8
29 -19 45 -18 30 -18 30 6 52 13 13 31 23 39 23 7 0 14 5 14 10 0 13 147 13
155 0 3 -5 14 -10 23 -10 54 0 130 -40 117 -61 -4 -5 2 -9 12 -10 11 -1 6 -5
-12 -11 -26 -8 -57 -54 -65 -96 -1 -4 -8 -11 -16 -15 -22 -12 -17 -27 10 -27
47 0 198 31 273 56 125 41 288 136 401 233 64 55 66 69 10 67 -34 -1 -43 3
-43 16 0 9 -8 25 -18 35 -23 26 -22 68 3 93 20 20 20 20 0 32 -18 11 -20 24
-20 106 0 60 4 91 10 87 6 -3 8 -16 4 -29 -3 -14 1 -27 10 -35 9 -8 16 -20 16
-27 0 -8 7 -14 15 -14 8 0 14 -3 13 -7 -4 -13 45 -73 59 -73 7 0 19 -11 25
-25 6 -14 15 -25 20 -25 4 0 8 -6 8 -14 0 -28 27 -24 46 7 10 18 17 36 16 40
-1 5 2 6 7 3 13 -8 76 105 114 203 83 213 89 480 16 719 -17 53 -48 124 -86
191 -1 2 -17 -3 -35 -12 -18 -9 -64 -23 -103 -33 -38 -9 -75 -21 -82 -26 -7
-5 -17 -7 -22 -4 -6 4 -8 -2 -6 -14 2 -11 -1 -19 -8 -17 -7 1 -11 -5 -11 -14
1 -9 -5 -16 -12 -16 -9 0 -10 5 -3 19 5 10 7 18 3 18 -3 0 -1 7 6 15 7 8 10
15 6 15 -4 0 1 11 9 24 35 53 66 51 -715 56 -399 3 -727 4 -729 2 -3 -1 0 -15
5 -30 l9 -27 125 -1 c69 0 94 1 55 3 -38 2 -74 9 -80 14 -11 11 616 11 990 0
193 -6 187 -6 -165 -11 l-365 -5 425 -5 c261 -2 390 -6 335 -10 -49 -4 -363
-6 -697 -5 -335 1 -608 -1 -608 -3 0 -10 45 -79 68 -104 22 -24 23 -56 2 -43
-5 3 -11 1 -15 -5 -4 -7 203 -10 632 -11 351 -1 617 -5 591 -8 -69 -10 -68
-19 1 -19 62 0 85 -7 76 -23 -9 -13 -612 -12 -617 2 -2 7 -11 7 -28 0 l-25
-10 28 0 c15 -1 27 -5 27 -10 0 -43 -56 -60 -62 -18 l-3 22 -312 3 -313 2 0
-51 c0 -43 -2 -50 -17 -45 -10 3 -49 15 -88 27 -89 27 -155 60 -225 112 -30
23 -56 42 -58 43 -6 4 45 137 64 171 11 18 22 33 27 33 4 0 7 5 7 11 0 22 61
98 74 93 8 -3 17 0 22 7 4 8 3 10 -4 5 -7 -4 -12 -2 -12 4 0 7 7 9 16 6 9 -3
18 -6 20 -6 3 0 2 -4 -1 -10 -3 -5 -2 -10 4 -10 6 0 16 10 22 23 6 12 20 30
30 40 11 10 16 24 12 35 -6 16 -6 16 11 -1 17 -17 20 -16 61 20 24 21 44 43
44 50 1 6 10 15 21 18 11 3 25 15 30 26 6 10 26 26 45 34 19 7 35 18 35 23 0
5 20 17 44 26 25 9 50 24 56 32 7 7 23 14 36 14 13 0 24 4 24 9 0 5 15 14 33
21 17 6 46 18 64 25 51 23 98 9 120 -34 10 -20 21 -37 26 -39 4 -2 7 -39 7
-83 0 -64 3 -79 15 -79 8 0 15 -8 15 -19 0 -14 6 -17 25 -13 30 5 55 -13 55
-40 0 -15 5 -18 23 -13 19 6 18 3 -8 -19 -16 -14 -25 -25 -18 -26 6 0 14 4 17
9 9 14 55 19 60 7 3 -7 8 -6 14 3 9 12 13 12 26 2 14 -11 16 -11 16 4 0 12 5
15 16 11 9 -3 20 -6 25 -6 6 0 7 -5 4 -10 -4 -6 -11 -8 -16 -5 -5 3 -6 -1 -3
-9 5 -13 -2 -15 -40 -14 -25 1 -46 6 -46 10 0 4 -7 8 -15 8 -8 0 -15 -4 -15
-9 0 -14 -64 -34 -68 -21 -2 5 -10 10 -18 10 -8 0 -14 5 -14 10 0 6 -7 10 -15
10 -8 0 -15 -4 -15 -9 0 -13 -74 -11 -82 2 -6 9 -10 8 -17 -1 -6 -11 -17 -11
-43 -4 -20 5 -47 7 -62 5 -16 -3 -26 -1 -26 7 0 7 -6 5 -16 -5 -11 -10 -20
-12 -28 -6 -11 9 -69 6 -87 -5 -6 -3 -16 0 -24 6 -12 10 -19 10 -32 -1 -12
-10 -17 -11 -20 -2 -3 7 -18 10 -44 7 -23 -3 -39 -1 -39 6 0 17 -14 11 -32
-15 -22 -29 -15 -50 22 -69 25 -12 33 -12 55 0 32 16 55 18 55 4 0 -14 42 -12
82 4 35 15 52 11 59 -12 3 -10 9 -8 24 5 18 16 42 20 83 15 6 -1 12 -8 12 -16
0 -9 7 -12 20 -9 11 3 20 11 20 17 0 6 9 12 20 13 11 1 20 -2 20 -7 0 -14 33
-21 42 -8 6 10 8 10 8 1 0 -7 5 -13 10 -13 6 0 10 7 10 15 0 8 9 15 19 15 10
0 21 -7 25 -15 3 -10 19 -15 46 -15 31 0 40 4 40 18 0 13 2 14 9 3 7 -10 10
-10 13 -1 3 10 7 9 18 -2 23 -22 60 -29 67 -12 6 16 53 20 53 4 0 -5 14 -10
30 -10 17 0 30 5 30 10 0 14 23 12 56 -5 19 -9 32 -11 40 -4 20 17 54 19 54 4
0 -19 67 -17 74 2 6 15 33 18 38 4 9 -24 101 -7 111 21 12 35 -35 57 -74 33
-6 -4 -15 -1 -20 6 -7 11 -11 11 -17 2 -8 -12 -36 -12 -48 -1 -3 4 -17 3 -30
-2 -13 -5 -25 -6 -28 -2 -2 4 -25 7 -50 5 -35 -2 -46 1 -46 12 0 18 -19 20
-26 3 -5 -15 -104 -22 -104 -8 0 6 6 10 14 10 8 0 16 6 19 13 3 9 9 9 24 1 15
-9 23 -8 38 2 11 8 25 12 32 10 7 -3 15 -1 18 4 4 6 22 10 41 10 22 0 34 5 34
13 0 8 12 14 29 15 16 0 64 17 106 37 43 20 86 35 98 33 11 -2 22 4 24 12 4
13 3 13 -6 0 -7 -9 -11 -10 -11 -3 0 17 17 25 26 12 9 -15 24 9 17 27 -7 18
-165 117 -244 153 -142 64 -349 103 -504 94z m-235 -753 l0 -30 299 0 299 0
-2 30 c-2 30 -2 30 48 29 29 -1 39 -4 24 -6 -22 -3 -28 -10 -28 -29 l0 -24
136 0 c127 0 136 1 141 20 3 11 9 20 13 20 11 0 21 -30 14 -41 -3 -5 -254 -8
-607 -7 -331 1 -558 4 -503 5 95 4 126 14 126 42 0 5 -30 12 -67 14 -64 3 -63
3 20 5 l87 2 0 -30z m148 23 c-21 -2 -57 -2 -80 0 -24 2 -7 4 37 4 44 0 63 -2
43 -4z m95 0 c-7 -2 -19 -2 -25 0 -7 3 -2 5 12 5 14 0 19 -2 13 -5z m74 1 c-3
-3 -12 -4 -19 -1 -8 3 -5 6 6 6 11 1 17 -2 13 -5z m260 0 c-3 -3 -12 -4 -19
-1 -8 3 -5 6 6 6 11 1 17 -2 13 -5z m186 -1 c-13 -2 -33 -2 -45 0 -13 2 -3 4
22 4 25 0 35 -2 23 -4z m-876 -19 c-3 -3 -12 -4 -19 -1 -8 3 -5 6 6 6 11 1 17
-2 13 -5z m130 -16 c-3 -8 -6 -5 -6 6 -1 11 2 17 5 13 3 -3 4 -12 1 -19z m101
-127 c10 -6 9 -10 -7 -14 -12 -3 -24 -13 -28 -24 -4 -10 -13 -24 -20 -31 -11
-11 -13 -11 -13 0 0 10 -3 9 -10 -2 -5 -8 -10 -10 -10 -5 0 6 -4 4 -9 -3 -4
-8 -6 -29 -4 -49 2 -24 0 -34 -8 -31 -15 5 -21 38 -7 38 5 0 7 8 4 18 -7 21
27 58 43 47 6 -3 12 2 13 12 0 10 2 23 3 28 2 6 3 13 4 18 1 10 33 9 49 -2z
m453 -23 c16 -20 18 -20 19 -5 0 15 15 17 175 17 l175 0 1 -87 c1 -49 2 -115
3 -148 1 -48 4 -60 19 -63 9 -2 17 -8 17 -13 0 -5 -91 -9 -219 -9 l-218 0 -5
50 c-3 27 -17 73 -32 101 -18 36 -21 48 -10 38 16 -13 16 -12 5 9 -6 12 -27
32 -46 45 -19 12 -35 26 -35 30 0 10 79 -44 102 -70 23 -25 49 -88 58 -143 6
-37 8 -28 9 52 1 88 -1 99 -21 120 -13 13 -35 37 -49 54 -14 17 -32 34 -40 37
-8 3 6 6 29 6 34 1 48 -4 63 -21z m-318 -15 c-7 -2 -19 -2 -25 0 -7 3 -2 5 12
5 14 0 19 -2 13 -5z m-103 -7 c0 -2 -12 -11 -27 -20 l-28 -17 24 20 c23 21 31
25 31 17z m55 -6 c-3 -5 -12 -10 -18 -10 -12 -1 -97 -80 -86 -80 3 0 20 11 39
25 19 14 39 25 44 25 6 0 -1 -8 -14 -17 -31 -21 -46 -39 -69 -83 -22 -43 -37
-130 -22 -130 6 0 11 -4 11 -9 0 -10 -38 -6 -48 4 -10 10 0 109 14 145 18 41
45 72 98 111 39 29 63 38 51 19z m-307 -62 c7 -7 12 -25 12 -40 0 -22 -8 -33
-30 -46 -16 -9 -30 -23 -30 -29 0 -15 -44 -28 -59 -18 -6 3 -11 37 -11 76 l0
69 53 0 c29 0 58 -5 65 -12z m443 -14 c10 -13 10 -17 -2 -24 -8 -6 -18 -5 -23
0 -19 19 -36 10 -36 -19 0 -36 13 -46 39 -29 25 15 39 4 21 -17 -15 -18 -71
-20 -88 -3 -17 17 -15 74 4 92 20 21 68 21 85 0z m24 -273 c16 -9 40 -32 52
-50 20 -30 21 -35 9 -75 -11 -36 -11 -49 0 -76 8 -18 14 -66 14 -106 0 -43 4
-74 10 -74 6 0 10 -40 10 -99 0 -120 -13 -142 -54 -88 -14 19 -26 39 -26 46 0
6 -6 22 -14 34 -25 39 -46 149 -51 276 -3 69 -7 127 -10 129 -14 15 -25 -19
-25 -81 -1 -129 -30 -299 -55 -327 -8 -9 -15 -23 -15 -30 0 -20 -50 -81 -61
-75 -5 4 -9 90 -9 197 0 150 3 195 14 207 11 13 12 27 4 72 -13 68 2 97 65
129 47 23 91 21 142 -9z m585 -36 c0 -13 -25 -15 -167 -15 -93 0 -192 -3 -221
-7 -47 -5 -52 -4 -46 11 5 12 14 16 30 13 12 -2 29 0 36 4 7 5 93 9 191 9 151
0 177 -2 177 -15z m-187 -41 c-3 -10 -13 -14 -25 -11 -14 4 -18 1 -14 -8 6
-16 -18 -68 -27 -59 -3 3 -14 0 -26 -7 -11 -7 -24 -10 -28 -6 -4 5 -2 12 6 16
8 5 -2 10 -28 15 -41 6 -46 13 -35 54 6 21 12 22 95 22 76 0 88 -2 82 -16z
m187 12 c0 -2 -3 -11 -6 -20 -11 -28 -114 -15 -114 14 0 6 27 10 60 10 33 0
60 -2 60 -4z m-387 -23 c7 -12 -11 -53 -23 -53 -5 0 -10 14 -10 30 0 28 21 42
33 23z m245 -41 c28 -16 29 -36 1 -27 -18 6 -20 4 -14 -14 6 -21 -8 -30 -20
-11 -4 6 -12 4 -21 -5 -19 -19 -34 -11 -34 18 0 16 3 18 9 8 5 -8 16 -11 30
-6 29 9 21 31 -9 27 -19 -3 -21 -2 -9 11 16 17 33 17 67 -1z m-1068 -52 c0 -5
-4 -10 -10 -10 -5 0 -10 5 -10 10 0 6 5 10 10 10 6 0 10 -4 10 -10z m170 -10
c0 -5 -7 -10 -15 -10 -8 0 -15 5 -15 10 0 6 7 10 15 10 8 0 15 -4 15 -10z
m-134 -58 c-4 -3 -11 -1 -18 6 -8 8 -8 15 3 28 13 16 14 16 17 -5 2 -13 1 -25
-2 -29z m974 18 c0 -5 -2 -10 -4 -10 -3 0 -8 5 -11 10 -3 6 -1 10 4 10 6 0 11
-4 11 -10z m-935 -121 c-24 -6 -20 -8 23 -5 38 2 52 0 52 -10 0 -11 -22 -14
-95 -14 -57 0 -95 4 -95 10 0 6 16 10 36 10 21 0 33 4 29 10 -4 6 10 10 37 9
41 -1 42 -2 13 -10z m1010 -19 c46 -7 43 -7 -37 -9 -49 0 -90 3 -93 9 -7 12
56 12 130 0z m-818 -6 c-3 -3 -12 -4 -19 -1 -8 3 -5 6 6 6 11 1 17 -2 13 -5z
m307 -80 c12 -31 6 -44 -19 -44 -27 0 -28 3 -19 38 7 25 29 29 38 6z m-461
-51 c-7 -2 -19 -2 -25 0 -7 3 -2 5 12 5 14 0 19 -2 13 -5z m472 -75 c40 -18
30 -26 -34 -24 l-60 1 27 17 c32 21 34 21 67 6z m-54 -70 c0 -10 2 -10 6 0 2
6 18 12 34 12 17 0 28 -4 24 -9 -3 -5 3 -12 12 -14 10 -3 -33 -5 -96 -6 -103
-1 -113 1 -95 14 24 18 114 20 115 3z"/>
<path d="M1348 1313 c6 -2 12 -11 12 -18 0 -14 37 -31 47 -22 2 3 -5 8 -16 12
-12 3 -21 13 -21 21 0 8 -8 14 -17 13 -11 0 -13 -3 -5 -6z"/>
<path d="M1558 1293 c-90 -3 -98 -5 -98 -23 0 -13 7 -20 20 -20 12 0 20 -7 20
-17 1 -17 2 -17 14 0 14 18 14 18 19 0 3 -13 5 -13 6 -3 1 13 17 15 94 14 76
-1 93 1 99 15 14 35 9 41 -34 39 -24 -1 -87 -4 -140 -5z"/>
<path d="M1401 1244 c0 -11 3 -14 6 -6 3 7 2 16 -1 19 -3 4 -6 -2 -5 -13z"/>
<path d="M1615 1200 c-8 -35 0 -50 24 -50 14 0 17 6 13 25 -2 14 -9 25 -14 25
-6 0 -8 7 -4 15 3 8 1 15 -4 15 -4 0 -11 -13 -15 -30z"/>
<path d="M1560 1159 l0 -60 42 3 c49 4 66 28 19 28 -30 0 -31 1 -31 45 0 33
-4 45 -15 45 -12 0 -15 -13 -15 -61z"/>
<path d="M1685 1194 c-28 -30 -23 -104 6 -104 15 0 19 8 20 38 l2 37 7 -35 c6
-29 7 -24 8 30 0 42 -2 58 -7 45 -7 -16 -9 -17 -12 -4 -3 13 -7 12 -24 -7z"/>
<path d="M1495 1169 c-4 -6 -13 -8 -21 -5 -8 3 -14 -1 -14 -9 0 -24 57 -19 63
5 5 21 -17 29 -28 9z"/>
<path d="M1507 1131 c-27 -6 -27 -7 -9 -22 33 -28 42 -31 42 -14 0 10 -5 13
-12 9 -9 -5 -8 -2 1 9 17 22 13 25 -22 18z"/>
<path d="M1528 1063 c39 -2 105 -2 145 0 39 1 7 3 -73 3 -80 0 -112 -2 -72 -3z"/>
<path d="M620 1160 c0 -47 3 -60 15 -60 8 0 15 8 15 19 0 13 9 20 30 25 24 4
30 11 30 30 0 28 -25 46 -64 46 -25 0 -26 -2 -26 -60z m60 15 c0 -8 -7 -15
-15 -15 -8 0 -15 7 -15 15 0 8 7 15 15 15 8 0 15 -7 15 -15z"/>
<path d="M90 1471 c0 -5 8 -11 18 -15 9 -3 24 -9 32 -12 8 -3 4 4 -9 15 -25
22 -41 27 -41 12z"/>
<path d="M470 1400 c0 -6 69 -10 186 -10 121 0 183 3 179 10 -4 6 -77 10 -186
10 -113 0 -179 -4 -179 -10z"/>
<path d="M1468 1393 c12 -2 30 -2 40 0 9 3 -1 5 -23 4 -22 0 -30 -2 -17 -4z"/>
<path d="M1563 1393 c9 -2 23 -2 30 0 6 3 -1 5 -18 5 -16 0 -22 -2 -12 -5z"/>
<path d="M470 880 c0 -6 34 -10 77 -10 42 0 74 2 72 5 -10 10 -149 14 -149 5z"/>
<path d="M616 844 c-8 -22 -9 -21 19 -28 14 -4 25 -11 25 -16 0 -6 5 -10 12
-10 6 0 4 7 -5 18 -10 10 -17 26 -17 35 0 22 -26 22 -34 1z"/>
<path d="M1938 450 c3 -8 5 -23 6 -32 1 -25 11 -10 11 17 1 13 -2 22 -6 19 -4
-2 -9 -1 -12 3 -2 5 -2 1 1 -7z"/>
</g>
</svg>
